<?xml version="1.0" standalone="no"?>
<!DOCTYPE svg PUBLIC "-//W3C//DTD SVG 20010904//EN"
 "http://www.w3.org/TR/2001/REC-SVG-20010904/DTD/svg10.dtd">
<svg version="1.0" xmlns="http://www.w3.org/2000/svg"
 width="289.000000pt" height="280.000000pt" viewBox="0 0 289.000000 280.000000"
 preserveAspectRatio="xMidYMid meet">

<g transform="translate(0.000000,280.000000) scale(0.100000,-0.100000)"
fill="#3ee0cf" stroke="none">
<path d="M1314 2238 l-121 -40 -42 -172 c-23 -94 -42 -175 -41 -181 0 -5 77
-36 170 -69 l169 -59 166 58 c163 57 165 58 158 84 -3 14 -25 97 -47 184 l-42
158 -119 40 c-66 21 -122 38 -125 38 -3 -1 -60 -19 -126 -41z"/>
<path d="M988 1778 c-15 -5 -67 -17 -115 -27 l-87 -17 40 -23 c21 -13 103 -57
181 -98 90 -47 144 -81 148 -94 4 -10 21 -27 38 -37 27 -14 65 -18 238 -20
236 -4 285 4 302 46 8 21 37 40 128 86 64 32 147 78 184 101 l68 42 -58 8
c-32 4 -89 15 -126 25 l-68 17 -22 -23 c-27 -29 -50 -32 -24 -4 15 16 -2 13
-96 -21 -63 -23 -149 -53 -192 -68 l-79 -26 -176 62 c-97 33 -186 64 -197 69
-16 6 -14 0 10 -27 29 -33 28 -33 -10 4 -44 40 -46 41 -87 25z"/>
<path d="M772 1592 l-53 -33 121 -133 c66 -74 127 -139 135 -146 8 -7 15 -15
15 -19 0 -4 -41 -22 -90 -41 -50 -18 -87 -36 -83 -40 22 -20 563 -377 563
-371 -1 3 -11 18 -23 32 -209 245 -390 504 -490 700 l-43 85 -52 -34z"/>
<path d="M2039 1583 c-23 -73 -140 -266 -257 -426 -64 -87 -64 -88 -46 -110
19 -22 19 -22 -2 -4 -20 17 -22 15 -128 -115 -72 -87 -98 -125 -78 -112 122
78 541 360 542 365 0 3 -38 20 -85 38 -47 18 -85 35 -85 39 0 4 59 71 130 150
72 78 130 145 130 148 0 6 -91 64 -101 64 -4 0 -13 -17 -20 -37z"/>
<path d="M1655 1370 c-62 -22 -86 -24 -210 -24 -117 0 -151 4 -205 22 -35 11
-66 20 -67 18 -7 -7 37 -171 49 -181 7 -7 61 -51 120 -99 l108 -87 122 103
123 104 17 79 c10 44 16 82 15 85 -1 3 -33 -6 -72 -20z"/>
</g>
</svg>
